<svg width="21" height="20" viewBox="0 0 21 20" fill="none" xmlns="http://www.w3.org/2000/svg">
<g clip-path="url(#clip0_2339_4023)">
<path d="M11.8655 0.672773C11.8655 0.303081 12.2397 0 12.7063 0C13.1729 0 13.5471 0.29975 13.5471 0.672773V3.61366C13.5471 3.98335 13.1729 4.28643 12.7063 4.28643C12.2397 4.28643 11.8655 3.98668 11.8655 3.61366V0.672773ZM2.29175 9.5204C2.2439 9.5204 2.20117 9.31557 2.20117 9.06578C2.20117 8.81599 2.23877 8.61282 2.29175 8.61282H4.58862C4.63647 8.61282 4.6792 8.81765 4.6792 9.06578C4.6792 9.31557 4.6416 9.5204 4.58862 9.5204H2.29175ZM5.95068 9.5204C5.90283 9.5204 5.86011 9.31557 5.86011 9.06578C5.86011 8.81599 5.89771 8.61282 5.95068 8.61282H8.24756C8.29541 8.61282 8.33813 8.81765 8.33813 9.06578C8.33813 9.31557 8.30054 9.5204 8.24756 9.5204H5.95068ZM9.61133 9.5204C9.56348 9.5204 9.52075 9.31557 9.52075 9.06578C9.52075 8.81599 9.55835 8.61282 9.61133 8.61282H11.9082C11.9561 8.61282 11.9988 8.81599 11.9988 9.06411C11.7681 9.204 11.5476 9.35554 11.3357 9.5204H9.61133ZM2.29688 12.1232C2.24902 12.1232 2.2063 11.9184 2.2063 11.6686C2.2063 11.4188 2.2439 11.214 2.29688 11.214H4.59375C4.6416 11.214 4.68433 11.4188 4.68433 11.6686C4.68433 11.9201 4.64673 12.1232 4.59375 12.1232H2.29688ZM5.95581 12.1232C5.90796 12.1232 5.86523 11.9184 5.86523 11.6686C5.86523 11.4188 5.90283 11.214 5.95581 11.214H8.25269C8.30054 11.214 8.34326 11.4188 8.34326 11.6686C8.34326 11.9201 8.30566 12.1232 8.25269 12.1232H5.95581ZM2.30029 14.7261C2.25244 14.7261 2.20972 14.5212 2.20972 14.2714C2.20972 14.02 2.24731 13.8168 2.30029 13.8168H4.59717C4.64502 13.8168 4.68774 14.0216 4.68774 14.2714C4.68774 14.5212 4.65015 14.7261 4.59717 14.7261H2.30029ZM5.96094 14.7261C5.91309 14.7261 5.87036 14.5212 5.87036 14.2714C5.87036 14.02 5.90796 13.8168 5.96094 13.8168H8.25781C8.30566 13.8168 8.34839 14.0216 8.34839 14.2714C8.34839 14.5212 8.31079 14.7261 8.25781 14.7261H5.96094ZM4.30835 0.672773C4.30835 0.301415 4.68262 0 5.14917 0C5.61572 0 5.98999 0.29975 5.98999 0.672773V3.61366C5.98999 3.98335 5.61401 4.28643 5.14917 4.28643C4.68262 4.28643 4.30835 3.98668 4.30835 3.61366V0.672773ZM0.92627 6.42964H16.9514V3.04413C16.9514 2.92756 16.9036 2.82598 16.8267 2.75271C16.7498 2.67777 16.6404 2.63114 16.5276 2.63114H14.9912C14.7332 2.63114 14.5247 2.42631 14.5247 2.17652C14.5247 1.92673 14.7332 1.7219 14.9912 1.7219H16.5276C16.9036 1.7219 17.2419 1.87011 17.488 2.10991C17.7358 2.35137 17.8862 2.67943 17.8862 3.0458V8.42132C17.5803 8.31807 17.2642 8.23481 16.9412 8.17319V7.33389H16.9514H0.92627V16.1032C0.92627 16.2198 0.974121 16.3214 1.05103 16.3947C1.12793 16.4696 1.2373 16.5162 1.3501 16.5162H8.96533C9.05249 16.831 9.16187 17.1391 9.29175 17.4338H1.35864C0.984375 17.4338 0.644287 17.2856 0.398193 17.0458C0.1521 16.806 0 16.4779 0 16.1116V3.04746C0 2.68276 0.1521 2.35137 0.398193 2.11157C0.645996 1.87011 0.982666 1.72356 1.35864 1.72356H2.99927C3.25561 1.72356 3.46582 1.92839 3.46582 2.17818C3.46582 2.42798 3.25561 2.63281 2.99927 2.63281H1.35864C1.23901 2.63281 1.13477 2.67943 1.05957 2.75437C0.982666 2.82931 0.934814 2.93589 0.934814 3.0458V6.43131L0.92627 6.42964ZM7.33667 2.63114C7.08032 2.63114 6.87012 2.42631 6.87012 2.17652C6.87012 1.92673 7.08032 1.7219 7.33667 1.7219H10.4641C10.7222 1.7219 10.9307 1.92673 10.9307 2.17652C10.9307 2.42798 10.7205 2.63114 10.4641 2.63114H7.33667Z" fill="black"/>
<path fill-rule="evenodd" clip-rule="evenodd" d="M15.5671 9.41382C17.0676 9.41382 18.4263 10.0067 19.4089 10.9642C20.3899 11.9234 20.9983 13.2473 20.9983 14.7077C20.9983 16.1682 20.3899 17.4938 19.4089 18.4513C18.4246 19.4088 17.0659 20.0017 15.5671 20.0017C14.0684 20.0017 12.708 19.4088 11.7253 18.4513C10.7427 17.4921 10.1343 16.1682 10.1343 14.7077C10.1343 13.2473 10.7427 11.9217 11.7253 10.9642C12.708 10.0067 14.0666 9.41382 15.5671 9.41382ZM13.1746 15.2706C13.1489 15.244 13.1267 15.2157 13.1079 15.1857C13.0874 15.1557 13.072 15.1241 13.0566 15.0908C13.0088 14.9808 12.9968 14.8643 13.0173 14.751C13.0378 14.6395 13.0891 14.5329 13.1711 14.4463L13.2019 14.4163C13.4053 14.2281 13.7129 14.1932 13.9539 14.3347C13.988 14.3547 14.0205 14.378 14.0513 14.4063L14.0547 14.4097C14.2256 14.5695 14.5144 14.831 14.7041 14.9942L14.8665 15.1357L16.8591 13.0991C16.8865 13.0708 16.9172 13.0458 16.9514 13.0241C16.9856 13.0008 17.0198 12.9825 17.0557 12.9675C17.0916 12.9525 17.1309 12.9392 17.1702 12.9309C17.2095 12.9226 17.2505 12.9176 17.2898 12.9176H17.2915C17.3308 12.9176 17.3701 12.9192 17.4094 12.9259C17.4487 12.9326 17.4863 12.9425 17.5273 12.9575C17.5649 12.9709 17.6008 12.9892 17.635 13.0092C17.6675 13.0291 17.6982 13.0525 17.729 13.0808L17.7427 13.0941C17.77 13.1207 17.7957 13.1507 17.8179 13.1823C17.8401 13.214 17.8606 13.249 17.876 13.2839C17.8931 13.3189 17.905 13.3572 17.9136 13.3955C17.9221 13.4338 17.9272 13.4721 17.929 13.5121V13.5321C17.929 13.567 17.9255 13.602 17.9187 13.6353C17.9119 13.6719 17.9016 13.7102 17.8879 13.7452C17.8743 13.7818 17.8555 13.8168 17.835 13.8501C17.8145 13.8834 17.7888 13.9134 17.7615 13.9417L15.3518 16.4013C15.3228 16.4313 15.2937 16.4563 15.2612 16.4779C15.2288 16.5012 15.1929 16.5196 15.157 16.5362C15.1211 16.5529 15.0818 16.5645 15.0425 16.5745C15.0032 16.5845 14.9639 16.5895 14.9229 16.5912H14.9126C14.875 16.5912 14.8374 16.5895 14.8032 16.5845L14.7947 16.5828C14.7588 16.5762 14.7229 16.5679 14.6887 16.5562C14.6511 16.5429 14.6152 16.5262 14.5811 16.5062L14.5759 16.5029C14.5435 16.4829 14.5127 16.4613 14.4836 16.438L14.4785 16.433C14.3384 16.3064 14.1863 16.1782 14.0342 16.0483C13.7659 15.8235 13.3967 15.4987 13.1746 15.2706Z" fill="#0CBF2E"/>
</g>
<defs>
<clipPath id="clip0_2339_4023">
<rect width="21" height="20" fill="white"/>
</clipPath>
</defs>
</svg>
