<svg width="15" height="15" viewBox="0 0 15 15" fill="none" xmlns="http://www.w3.org/2000/svg">
<path fill-rule="evenodd" clip-rule="evenodd" d="M15 7.5C15 11.6421 11.6421 15 7.5 15C3.35786 15 0 11.6421 0 7.5C0 3.35786 3.35786 0 7.5 0C11.6421 0 15 3.35786 15 7.5ZM7.5 11.8125C7.81065 11.8125 8.0625 11.5606 8.0625 11.25V6.75C8.0625 6.43935 7.81065 6.1875 7.5 6.1875C7.18935 6.1875 6.9375 6.43935 6.9375 6.75V11.25C6.9375 11.5606 7.18935 11.8125 7.5 11.8125ZM7.5 3.75C7.91422 3.75 8.25 4.08579 8.25 4.5C8.25 4.91421 7.91422 5.25 7.5 5.25C7.08577 5.25 6.75 4.91421 6.75 4.5C6.75 4.08579 7.08577 3.75 7.5 3.75Z" fill="#CC000D"/>
</svg>
