<svg width="22" height="22" viewBox="0 0 22 22" fill="none" xmlns="http://www.w3.org/2000/svg">
<path d="M8.25045 11.9149C8.49344 11.9149 8.72647 12.0114 8.89828 12.1832C9.0701 12.355 9.16663 12.5881 9.16663 12.8311V16.4981C9.16693 16.741 9.26356 16.9738 9.4353 17.1456C9.60705 17.3173 9.83991 17.4139 10.0828 17.4142H12.8336V3.66701C12.835 3.28283 12.9559 2.9086 13.1796 2.59623C13.4032 2.28386 13.7186 2.04883 14.0818 1.92373L14.3537 1.8335H10.0851C9.84222 1.83381 9.60937 1.93043 9.43762 2.10218C9.26587 2.27393 9.16925 2.50679 9.16894 2.74968V5.50051C9.16894 5.74365 9.07235 5.97683 8.90043 6.14876C8.72851 6.32068 8.49533 6.41727 8.25219 6.41727C8.00905 6.41727 7.77587 6.32068 7.60394 6.14876C7.43202 5.97683 7.33543 5.74365 7.33543 5.50051V2.74968C7.33635 2.0207 7.62635 1.32184 8.14181 0.806376C8.65728 0.290911 9.35613 0.000918302 10.0851 0L19.9375 0C19.9699 0.00435462 20.0019 0.0109251 20.0335 0.0196653C20.0797 0.016195 20.1214 0 20.1665 0C20.6527 0.000306449 21.1189 0.193577 21.4626 0.537359C21.8064 0.881142 21.9997 1.34732 22 1.8335V18.3339C21.9984 18.7179 21.8773 19.0918 21.6537 19.404C21.4301 19.7161 21.1149 19.951 20.7518 20.076L15.2351 21.9153C15.0512 21.9725 14.8597 22.0013 14.6671 22.0009C14.181 22.0006 13.7148 21.8073 13.371 21.4635C13.0272 21.1198 12.8339 20.6536 12.8336 20.1674V19.2512H10.0851C9.35613 19.2503 8.65728 18.9603 8.14181 18.4448C7.62635 17.9294 7.33635 17.2305 7.33543 16.5015V12.8345C7.33543 12.7142 7.35913 12.5951 7.40517 12.4839C7.45122 12.3728 7.5187 12.2718 7.60378 12.1867C7.68885 12.1016 7.78985 12.0341 7.901 11.9881C8.01216 11.9421 8.1313 11.9184 8.25161 11.9184L8.25045 11.9149Z" fill="#717171"/>
<path d="M0.268328 8.51631L3.93534 4.8493C4.0634 4.72079 4.22675 4.63319 4.40466 4.59762C4.58257 4.56204 4.76703 4.58009 4.93467 4.64948C5.10231 4.71886 5.24557 4.83646 5.3463 4.98736C5.44703 5.13826 5.50068 5.31567 5.50047 5.4971V8.25025H9.16748C9.41061 8.25025 9.64379 8.34684 9.81572 8.51876C9.98764 8.69068 10.0842 8.92386 10.0842 9.167C10.0842 9.41014 9.98764 9.64332 9.81572 9.81524C9.64379 9.98717 9.41061 10.0838 9.16748 10.0838H5.50047V12.8334C5.50068 13.0149 5.44703 13.1923 5.3463 13.3432C5.24557 13.4941 5.10231 13.6117 4.93467 13.6811C4.76703 13.7504 4.58257 13.7685 4.40466 13.7329C4.22675 13.6973 4.0634 13.6097 3.93534 13.4812L0.268328 9.81422C0.0965319 9.64241 1.90735e-05 9.40939 1.90735e-05 9.16642C1.90735e-05 8.92346 0.0965319 8.69044 0.268328 8.51862V8.51631Z" fill="#717171"/>
</svg>
