<svg width="24" height="24" viewBox="0 0 24 24" fill="none" xmlns="http://www.w3.org/2000/svg">
<path d="M3.85881 3.10776C2.7213 3.10776 1.79321 4.03623 1.79321 5.17373V13.3488V14.0567V17.9673C1.79321 19.5813 3.10571 20.8923 4.71966 20.8923H17.8086H20.88C21.031 20.8923 21.1757 20.8653 21.3112 20.8179C21.6146 20.7958 21.8497 20.5893 21.9876 20.3586C22.0785 20.2065 22.138 20.0325 22.1724 19.8466C22.1758 19.8314 22.178 19.816 22.1808 19.8007C22.1855 19.7711 22.1912 19.742 22.1944 19.7118C22.1991 19.6693 22.2016 19.626 22.202 19.5824C22.2021 19.5773 22.2028 19.5729 22.2028 19.568C22.2035 19.5444 22.207 19.5217 22.207 19.4978V9.78853H22.2028V5.91811C22.2028 5.21005 21.636 4.62752 20.9347 4.59836C20.6842 3.73942 19.8899 3.10781 18.9522 3.10781L3.85881 3.10776ZM3.85881 3.88549H18.9522C19.6725 3.88549 20.2404 4.45343 20.2404 5.17373V13.3488V14.0567V17.9673H20.2446V19.4977C20.2446 19.7189 20.2816 19.9262 20.3505 20.1145H11.1335V20.1149H4.71966C3.52291 20.1149 2.57056 19.1641 2.57056 17.9673V14.0567V13.3488V5.17373C2.57056 4.45343 3.1385 3.88549 3.85881 3.88549ZM4.42398 5.15931C4.11453 5.15931 3.86564 5.5763 3.86564 6.09417V10.0075C3.86564 10.5254 4.11453 10.9424 4.42398 10.9424H9.18676C9.4962 10.9424 9.74548 10.5254 9.74548 10.0075V6.09417C9.74548 5.5763 9.4962 5.15931 9.18676 5.15931H4.42398ZM12.5459 5.15931C12.2365 5.15931 11.9876 5.4182 11.9876 5.73966C11.9876 6.06112 12.2365 6.31964 12.5459 6.31964H18.4671C18.7766 6.31964 19.0258 6.06112 19.0258 5.73966C19.0258 5.4182 18.7766 5.15931 18.4671 5.15931H12.5459ZM21.0178 5.3897C21.2563 5.44875 21.4254 5.65697 21.4254 5.91805V19.5627C21.4253 19.5678 21.4247 19.5735 21.4243 19.579C21.4239 19.6064 21.4209 19.6329 21.4167 19.659C21.4146 19.6729 21.4117 19.6856 21.4091 19.6989C21.3768 19.8383 21.2945 19.9543 21.1795 20.028C21.1678 20.016 21.1513 19.9956 21.1298 19.9597C21.0737 19.8658 21.0208 19.6944 21.0208 19.4978V9.7885H21.0178L21.0178 5.3897ZM12.5459 7.47048C12.2365 7.47048 11.9876 7.72937 11.9876 8.05083C11.9876 8.37229 12.2365 8.63118 12.5459 8.63118H18.4671C18.7766 8.63118 19.0258 8.37229 19.0258 8.05083C19.0258 7.72937 18.7766 7.47048 18.4671 7.47048H12.5459ZM12.5459 9.78164C12.2365 9.78164 11.9876 10.0405 11.9876 10.362C11.9876 10.6835 12.2365 10.9424 12.5459 10.9424H18.4671C18.7766 10.9424 19.0258 10.6835 19.0258 10.362C19.0258 10.0405 18.7766 9.78164 18.4671 9.78164H12.5459ZM4.43423 12.7711C4.11929 12.7711 3.86564 13.0296 3.86564 13.3511C3.86564 13.6725 4.11929 13.9314 4.43423 13.9314H18.4573C18.7722 13.9314 19.0258 13.6725 19.0258 13.3511C19.0258 13.0296 18.7722 12.7711 18.4573 12.7711H4.43423ZM4.44599 15.3039C4.12453 15.3039 3.86564 15.5625 3.86564 15.8839C3.86564 16.2054 4.12453 16.4643 4.44599 16.4643H9.16512C9.48658 16.4643 9.7451 16.2054 9.7451 15.8839C9.7451 15.5625 9.48658 15.3039 9.16512 15.3039H4.44599ZM12.5459 15.3039C12.2365 15.3039 11.9876 15.5625 11.9876 15.8839C11.9876 16.2054 12.2365 16.4643 12.5459 16.4643H18.4671C18.7766 16.4643 19.0258 16.2054 19.0258 15.8839C19.0258 15.5625 18.7766 15.3039 18.4671 15.3039H12.5459ZM4.44599 17.8364C4.12453 17.8364 3.86564 18.0953 3.86564 18.4167C3.86564 18.7382 4.12453 18.9971 4.44599 18.9971H9.16512C9.48658 18.9971 9.7451 18.7382 9.7451 18.4167C9.7451 18.0953 9.48658 17.8364 9.16512 17.8364H4.44599ZM12.5459 17.8364C12.2365 17.8364 11.9876 18.0953 11.9876 18.4167C11.9876 18.7382 12.2365 18.9971 12.5459 18.9971H18.4671C18.7766 18.9971 19.0258 18.7382 19.0258 18.4167C19.0258 18.0953 18.7766 17.8364 18.4671 17.8364H12.5459Z" fill="white"/>
</svg>
