<svg width="80" height="80" viewBox="0 0 80 80" fill="none" xmlns="http://www.w3.org/2000/svg">
<path d="M79.1838 36.5188C78.5258 35.2397 77.5014 34.1858 76.2416 33.4917L76.2545 33.4836L37.7268 13.3333L0.00317383 32.7257L0.123578 32.7935L38.387 52.863C41.9385 54.7257 43.3195 59.1386 41.4739 62.7192C40.8912 63.8467 40.0226 64.8014 38.9551 65.4877L38.905 65.5531L38.8719 65.5774L77.4828 45.3923C79.9717 43.238 80.7636 39.5766 79.1838 36.5188Z" fill="#EBECED"/>
<path d="M38.3871 52.863L0 32.7281V49.2048L31.7051 65.8351C32.7335 66.3761 33.8779 66.6593 35.04 66.6602C36.371 66.6589 37.6759 66.2904 38.811 65.5954C39.9462 64.9004 40.8676 63.9057 41.4739 62.7208C43.3188 59.1386 41.9378 54.7256 38.3871 52.863Z" fill="#BDC3C7"/>
<path d="M14.8444 31.3584L18.5406 33.221L12.3281 32.6263L10.3992 33.5976L17.082 36.9624L19.023 35.9846L15.3551 34.1366L21.5264 34.7257L23.4723 33.7455L16.7895 30.3806L14.8444 31.3584ZM25.3963 31.2509L24.0784 30.5883L27.2921 28.9705L25.9281 28.2828L22.7143 29.9006L21.6541 29.3665L25.1167 27.6226L23.6897 26.9034L18.1559 29.6897L24.8388 33.0545L30.4735 30.2166L28.96 29.4554L25.3963 31.2509ZM31.6137 22.9123L34.6424 25.1515L29.8699 23.7915L27.9159 24.7758L30.6246 27.1806L26.1778 25.6517L24.2165 26.6392L32.3838 29.2558L34.4089 28.236L31.3689 25.5289L36.7475 27.0578L38.7725 26.0372L33.5644 21.9305L31.6137 22.9123ZM45.2784 21.7657C45.1539 21.4642 44.8776 21.2065 44.4485 20.9907C44.0848 20.8057 43.6654 20.6861 43.1935 20.6271C42.72 20.5681 42.1899 20.5867 41.5984 20.6828C41.0085 20.779 40.1664 21.0044 39.0691 21.3616C38.6287 21.5079 38.3143 21.5822 38.1301 21.5871C37.945 21.5952 37.7996 21.5709 37.6929 21.5176C37.5458 21.444 37.4836 21.3519 37.5038 21.2388C37.524 21.1257 37.6549 21.0093 37.8933 20.8873C38.1702 20.7445 38.4743 20.6621 38.7854 20.6457C39.0868 20.6303 39.4141 20.6869 39.7673 20.8113L41.6008 19.7745C40.8226 19.4683 40.0517 19.3487 39.2881 19.415C38.5212 19.4804 37.7115 19.7285 36.8574 20.1584C36.1608 20.5091 35.6994 20.8283 35.4755 21.1184C35.2517 21.4069 35.1911 21.6792 35.2978 21.9329C35.4044 22.1867 35.6283 22.4016 35.9725 22.5737C36.4945 22.8372 37.1192 22.9568 37.844 22.9293C38.5681 22.9051 39.4836 22.7152 40.5923 22.362C41.2662 22.1447 41.7487 22.0323 42.0363 22.0259C42.324 22.017 42.5584 22.0574 42.7281 22.1438C42.9123 22.2352 42.9899 22.3572 42.9697 22.5067C42.9503 22.6562 42.7895 22.8049 42.4961 22.9543C42.0879 23.1569 41.6324 23.2449 41.1782 23.2089C40.88 23.1903 40.5527 23.1111 40.1883 22.9721L38.3483 24.0234C39.0788 24.3345 39.8828 24.4889 40.7572 24.4889C41.6315 24.4889 42.6384 24.2028 43.7737 23.6307C44.4218 23.3051 44.8638 22.9875 45.1022 22.6788C45.3462 22.3733 45.4028 22.0671 45.2784 21.7657Z" fill="#7E8B8C"/>
<path d="M51.8974 25.6525L22.4565 40.4792L24.6109 41.5644L54.0533 26.737L51.8974 25.6525ZM27.4828 43.0101L33.9458 46.2634L42.5616 41.9249L36.0986 38.6707L27.4828 43.0101ZM41.844 37.9467L59.0763 29.2687L56.922 28.1834L39.6897 36.8622L41.844 37.9467ZM61.2307 30.3531L43.9976 39.0319L46.1519 40.118L63.385 31.4392L61.2307 30.3531Z" fill="#BDC2C6"/>
<path d="M33.962 57.8012L0 39.6743V41.5265L33.2307 59.2606C33.3428 59.3209 33.4679 59.3525 33.5952 59.3527C33.8812 59.3527 34.1584 59.1911 34.3006 58.9091C34.3983 58.7165 34.4176 58.4935 34.3545 58.2869C34.2914 58.0804 34.1507 57.9063 33.962 57.8012Z" fill="#7E8B8C"/>
</svg>
