<svg width="40" height="44" viewBox="0 0 40 44" fill="none" xmlns="http://www.w3.org/2000/svg">
<path d="M8.26 17V4.4H14.02C15.172 4.4 16.162 4.586 16.99 4.958C17.83 5.33 18.478 5.87 18.934 6.578C19.39 7.274 19.618 8.102 19.618 9.062C19.618 10.01 19.39 10.832 18.934 11.528C18.478 12.224 17.83 12.764 16.99 13.148C16.162 13.52 15.172 13.706 14.02 13.706H10.24L11.824 12.158V17H8.26ZM11.824 12.536L10.24 10.898H13.804C14.548 10.898 15.1 10.736 15.46 10.412C15.832 10.088 16.018 9.638 16.018 9.062C16.018 8.474 15.832 8.018 15.46 7.694C15.1 7.37 14.548 7.208 13.804 7.208H10.24L11.824 5.57V12.536ZM21.3557 17V4.4H27.1157C28.2677 4.4 29.2577 4.586 30.0857 4.958C30.9257 5.33 31.5737 5.87 32.0297 6.578C32.4857 7.274 32.7137 8.102 32.7137 9.062C32.7137 10.01 32.4857 10.832 32.0297 11.528C31.5737 12.224 30.9257 12.764 30.0857 13.148C29.2577 13.52 28.2677 13.706 27.1157 13.706H23.3357L24.9197 12.158V17H21.3557ZM24.9197 12.536L23.3357 10.898H26.8997C27.6437 10.898 28.1957 10.736 28.5557 10.412C28.9277 10.088 29.1137 9.638 29.1137 9.062C29.1137 8.474 28.9277 8.018 28.5557 7.694C28.1957 7.37 27.6437 7.208 26.8997 7.208H23.3357L24.9197 5.57V12.536Z" fill="white"/>
<path d="M15.26 39V26.4H18.824V36.174H24.836V39H15.26Z" fill="white"/>
<line y1="21.5" x2="40" y2="21.5" stroke="white"/>
</svg>
